<svg width="30" height="30" viewBox="0 0 20 20" fill="none" xmlns="http://www.w3.org/2000/svg">
<g clip-path="url(#clip0_1_83)">
<path fill-rule="evenodd" clip-rule="evenodd" d="M20 10C20 15.5228 15.5228 20 10 20C4.47715 20 0 15.5228 0 10C0 4.47715 4.47715 0 10 0C15.5228 0 20 4.47715 20 10ZM6.69647 9.08404C5.69473 9.52141 4.66546 9.97081 3.72428 10.4892L3.72422 10.4893C3.23276 10.8491 3.886 11.1036 4.49878 11.3424C4.5962 11.3803 4.6926 11.4179 4.78322 11.4554C4.85862 11.4786 4.9353 11.503 5.01301 11.5277C5.69453 11.7449 6.45449 11.987 7.11613 11.6228C8.20303 10.9984 9.22876 10.2766 10.2537 9.55527C10.5895 9.31895 10.9252 9.08269 11.263 8.84994C11.2788 8.83982 11.2966 8.82824 11.3162 8.81559C11.6039 8.62907 12.251 8.20962 12.0116 8.7876C11.4456 9.40659 10.8394 9.95454 10.2298 10.5055C9.81897 10.8768 9.40666 11.2494 9.00415 11.6461C8.65357 11.9309 8.28957 12.5037 8.68211 12.9026C9.58622 13.5355 10.5045 14.1531 11.4222 14.7704C11.7208 14.9712 12.0194 15.172 12.3174 15.3733C12.8225 15.7766 13.6119 15.4504 13.7229 14.8203C13.7723 14.5304 13.8219 14.2405 13.8715 13.9506C14.1455 12.3487 14.4196 10.7462 14.6617 9.13902C14.6946 8.88693 14.7319 8.63483 14.7692 8.38261C14.8597 7.77132 14.9503 7.15928 14.9785 6.54469C14.9056 5.93138 14.162 6.06623 13.7481 6.20414C11.6209 7.01355 9.51503 7.88297 7.41745 8.76772C7.17983 8.87299 6.93896 8.97816 6.69647 9.08404Z" fill="white"/>
</g>
<defs>
<clipPath id="clip0_1_83">
<rect width="30" height="30" fill="white"/>
</clipPath>
</defs>
</svg>
