<svg width="30" height="30" viewBox="0 0 20 20" fill="none" xmlns="http://www.w3.org/2000/svg">
<path fill-rule="evenodd" clip-rule="evenodd" d="M0 10C0 15.5228 4.47715 20 10 20C15.5228 20 20 15.5228 20 10C20 4.47715 15.5228 0 10 0C4.47715 0 0 4.47715 0 10ZM16.2759 9.61729C16.2746 12.8951 13.6081 15.5622 10.3296 15.5635H10.3272C9.33196 15.5632 8.35408 15.3135 7.48556 14.8398L4.33333 15.6667L5.17692 12.5854C4.65656 11.6835 4.38274 10.6606 4.38319 9.6126C4.38449 6.33404 7.05201 3.66667 10.3296 3.66667C11.9203 3.66735 13.4133 4.28661 14.5359 5.41059C15.6586 6.53451 16.2765 8.02847 16.2759 9.61729Z" fill="white"/>
<path fill-rule="evenodd" clip-rule="evenodd" d="M5.76102 14.2539L7.6316 13.7632L7.81207 13.8703C8.5709 14.3206 9.44074 14.5588 10.3276 14.5592H10.3296C13.0537 14.5592 15.2708 12.342 15.2719 9.61683C15.2724 8.29622 14.7588 7.0545 13.8257 6.12029C12.8926 5.18609 11.6516 4.67136 10.3315 4.6709C7.60537 4.6709 5.38823 6.88784 5.38715 9.61283C5.38676 10.5467 5.64806 11.4562 6.1428 12.2431L6.26031 12.4301L5.76102 14.2539ZM13.1218 10.8974C13.2255 10.9475 13.2954 10.9813 13.3253 11.0312C13.3624 11.0931 13.3624 11.3906 13.2387 11.7377C13.1148 12.0848 12.5213 12.4015 12.2358 12.4442C11.9798 12.4825 11.6559 12.4984 11.3 12.3853C11.0842 12.3168 10.8074 12.2254 10.453 12.0723C9.06006 11.4709 8.11875 10.1209 7.94085 9.86573C7.92838 9.84786 7.91967 9.83535 7.9148 9.82886L7.9136 9.82726C7.83497 9.72234 7.30812 9.01939 7.30812 8.29187C7.30812 7.60748 7.6443 7.24876 7.79905 7.08364C7.80965 7.07233 7.8194 7.06192 7.82813 7.05238C7.96432 6.90363 8.1253 6.86645 8.22434 6.86645C8.32338 6.86645 8.42254 6.86736 8.5091 6.87171C8.51979 6.87225 8.5309 6.87218 8.54238 6.87211C8.62897 6.87161 8.73691 6.87097 8.8434 7.12676C8.88436 7.22519 8.9443 7.37112 9.00752 7.52504C9.13538 7.83629 9.27664 8.1802 9.30149 8.22997C9.33864 8.30434 9.3634 8.39108 9.31388 8.49028C9.30644 8.50515 9.29957 8.51919 9.293 8.5326C9.2558 8.60855 9.22844 8.66441 9.1653 8.73812C9.14048 8.76711 9.11482 8.79836 9.08916 8.8296C9.03805 8.89185 8.98694 8.9541 8.94243 8.99843C8.86805 9.07252 8.79062 9.1529 8.87729 9.30166C8.96396 9.45041 9.26215 9.93693 9.70384 10.3309C10.1786 10.7544 10.5913 10.9334 10.8005 11.0242C10.8413 11.0419 10.8744 11.0562 10.8987 11.0684C11.0472 11.1428 11.1339 11.1303 11.2206 11.0312C11.3072 10.932 11.592 10.5973 11.691 10.4486C11.79 10.2999 11.8891 10.3247 12.0253 10.3742C12.1615 10.4239 12.892 10.7833 13.0406 10.8576C13.0696 10.8722 13.0967 10.8853 13.1218 10.8974Z" fill="white"/>
</svg>
